<svg xmlns="http://www.w3.org/2000/svg" version="1.0" width="904.000000pt" height="233.000000pt" viewBox="0 0 904.000000 233.000000" preserveAspectRatio="xMidYMid meet">
<metadata>
Created by potrace 1.16, written by Peter Selinger 2001-2019
</metadata>
<g transform="translate(0.000000,233.000000) scale(0.100000,-0.100000)" fill="#000000" stroke="none">
<path d="M645 2134 c-227 -47 -412 -231 -460 -459 -12 -58 -15 -195 -15 -798 l0 -728 763 3 762 3 67 26 c102 40 173 87 241 159 75 79 121 162 147 266 19 73 20 113 20 811 l0 733 -727 -1 c-595 0 -741 -3 -798 -15z m242 -665 l57 -22 14 22 c8 11 18 21 23 21 5 0 9 -52 9 -116 0 -126 -13 -148 -35 -61 -35 136 -213 187 -270 77 -33 -63 3 -107 161 -195 158 -88 210 -160 184 -255 -32 -119 -163 -169 -318 -120 -78 25 -79 25 -87 0 -3 -11 -13 -20 -21 -20 -11 0 -14 22 -14 115 0 93 3 115 14 115 9 0 21 -21 30 -53 24 -81 97 -137 181 -137 97 0 157 89 108 160 -22 33 -36 43 -113 87 -170 96 -220 147 -220 227 0 138 142 212 297 155z m712 -14 c111 -61 174 -170 174 -305 0 -129 -51 -229 -147 -294 -69 -46 -115 -59 -199 -54 -123 6 -223 74 -275 186 -23 50 -27 70 -27 157 0 89 3 106 28 157 34 70 109 140 180 168 78 30 194 24 266 -15z"/>
<path d="M1360 1432 c-45 -24 -95 -98 -109 -162 -37 -171 14 -361 109 -411 50 -27 135 -25 182 4 81 49 110 118 111 267 1 213 -69 320 -210 320 -28 0 -63 -8 -83 -18z"/>
<path d="M2945 2125 l-25 -24 0 -951 0 -951 25 -24 c13 -14 36 -25 50 -25 14 0 37 11 50 25 l25 24 0 951 0 951 -25 24 c-13 14 -36 25 -50 25 -14 0 -37 -11 -50 -25z"/>
<path d="M3873 2036 c-88 -28 -133 -85 -133 -168 0 -80 52 -134 160 -164 216 -60 240 -74 240 -139 0 -99 -157 -147 -274 -82 -31 17 -45 33 -60 72 -11 28 -21 51 -22 53 -1 2 -18 0 -39 -4 -34 -6 -36 -8 -29 -38 26 -121 113 -181 264 -181 74 0 92 4 135 28 62 34 97 83 103 145 9 98 -49 164 -175 196 -148 38 -173 47 -199 70 -34 29 -35 78 -3 112 43 46 149 55 219 19 30 -16 60 -61 60 -91 0 -14 7 -16 36 -11 20 3 39 9 42 12 3 2 -1 24 -8 47 -32 107 -182 166 -317 124z"/>
<path d="M6533 2036 c-145 -47 -222 -176 -211 -350 16 -241 238 -375 448 -268 175 88 215 374 76 539 -62 73 -214 112 -313 79z m211 -93 c83 -57 122 -189 92 -310 -18 -75 -49 -121 -103 -155 -55 -33 -162 -33 -216 1 -106 66 -146 232 -90 373 17 44 82 104 128 118 55 17 144 5 189 -27z"/>
<path d="M4378 1992 c-25 -15 -28 -22 -28 -74 0 -58 0 -58 -30 -58 -27 0 -30 -3 -30 -29 0 -25 4 -30 28 -33 l27 -3 6 -190 c3 -104 6 -191 7 -192 11 -13 68 -33 94 -33 48 0 61 12 54 47 -6 25 -11 29 -32 25 -49 -9 -54 6 -54 184 l0 164 40 0 c38 0 40 2 40 30 0 28 -2 30 -40 30 l-40 0 0 75 c0 41 -3 75 -7 75 -5 0 -20 -8 -35 -18z"/>
<path d="M4691 1858 c-121 -41 -176 -218 -113 -360 50 -114 200 -151 314 -79 65 41 88 94 88 202 0 110 -29 176 -96 215 -51 30 -139 40 -193 22z m114 -58 c8 0 30 -14 49 -31 47 -40 65 -116 48 -197 -24 -113 -112 -155 -211 -102 -79 42 -79 268 0 311 33 17 72 28 87 23 8 -2 20 -4 27 -4z"/>
<path d="M5230 1854 c-19 -8 -45 -25 -57 -36 l-23 -21 0 31 c0 30 -2 32 -35 32 l-35 0 0 -235 0 -235 39 0 40 0 3 176 3 176 33 29 c26 24 41 29 80 29 92 -1 102 -24 102 -239 l0 -171 41 0 41 0 -4 188 c-4 217 -11 241 -81 273 -50 22 -100 24 -147 3z"/>
<path d="M5695 1855 c-49 -17 -107 -80 -123 -133 -15 -49 -15 -145 -1 -197 15 -52 82 -119 134 -134 109 -30 213 7 256 91 11 22 19 41 17 43 -2 1 -19 5 -38 9 -31 5 -37 3 -52 -23 -23 -42 -63 -64 -113 -64 -70 0 -120 44 -132 117 l-6 36 172 0 171 0 0 53 c-1 153 -141 253 -285 202z m148 -67 c26 -13 57 -68 57 -100 l0 -28 -124 0 c-74 0 -127 4 -131 10 -10 16 13 75 39 99 41 39 107 47 159 19z"/>
<path d="M7146 1855 c-112 -40 -165 -184 -121 -332 49 -163 289 -192 365 -43 25 49 25 70 1 70 -11 0 -26 2 -33 5 -10 4 -20 -7 -30 -34 -19 -48 -56 -74 -109 -74 -81 0 -129 65 -129 175 0 106 30 159 102 179 51 13 107 -12 127 -58 13 -28 18 -31 45 -26 39 7 40 8 32 36 -22 90 -144 140 -250 102z"/>
<path d="M7595 1855 c-49 -17 -107 -80 -123 -133 -15 -49 -15 -145 -1 -197 15 -52 82 -119 134 -134 109 -30 213 7 256 91 11 22 19 41 17 43 -2 1 -19 5 -38 9 -31 5 -37 3 -52 -23 -23 -42 -63 -64 -113 -64 -70 0 -120 44 -132 117 l-6 36 172 0 171 0 0 53 c-1 153 -141 253 -285 202z m148 -67 c26 -13 57 -68 57 -100 l0 -28 -124 0 c-74 0 -127 4 -131 10 -10 16 13 75 39 99 41 39 107 47 159 19z"/>
<path d="M8105 1861 c-58 -15 -95 -41 -116 -82 -11 -23 -19 -42 -17 -44 2 -1 19 -5 39 -9 33 -6 37 -4 43 19 9 37 49 58 111 59 69 1 108 -25 113 -74 2 -18 0 -36 -5 -41 -4 -4 -53 -15 -108 -24 -55 -9 -115 -24 -134 -32 -66 -32 -92 -124 -52 -189 43 -71 170 -83 262 -25 l48 29 6 -29 c6 -26 10 -29 47 -29 35 0 39 2 32 18 -4 9 -10 98 -14 197 -6 193 -10 209 -62 239 -32 19 -147 29 -193 17z m160 -351 c-11 -21 -32 -39 -62 -52 -84 -37 -163 -7 -163 62 0 40 37 66 113 79 34 6 76 15 92 19 30 8 30 8 33 -34 2 -26 -4 -56 -13 -74z"/>
<path d="M8630 1855 c-19 -9 -45 -26 -57 -37 l-23 -21 0 31 c0 29 -3 32 -30 32 l-30 0 0 -235 0 -235 35 0 35 0 0 155 c0 175 9 214 59 239 40 21 103 20 131 -2 30 -24 39 -81 40 -249 l0 -143 35 0 35 0 0 183 c0 199 -7 230 -61 269 -35 26 -124 33 -169 13z"/>
<path d="M3785 608 c-43 -112 -86 -224 -96 -250 l-19 -48 34 0 c33 0 34 1 62 80 l28 81 105 -3 106 -3 29 -77 c28 -76 30 -78 63 -78 18 0 33 4 33 8 0 5 -44 116 -98 248 l-99 239 -35 3 -34 3 -79 -203z m154 32 c23 -58 41 -108 41 -112 0 -5 -38 -8 -83 -8 l-84 0 41 114 c23 63 42 113 43 113 1 -1 20 -49 42 -107z"/>
<path d="M5120 560 l0 -250 25 0 25 0 0 250 0 250 -25 0 -25 0 0 -250z"/>
<path d="M7220 725 c0 -47 -2 -85 -4 -85 -3 0 -21 10 -41 21 -66 39 -154 8 -190 -68 -23 -48 -24 -157 -2 -199 47 -90 151 -120 215 -61 l22 20 0 -21 c0 -17 6 -22 25 -22 l25 0 0 250 0 250 -25 0 c-25 0 -25 -1 -25 -85z m-38 -124 c29 -26 33 -35 36 -98 5 -83 -12 -124 -57 -143 -59 -24 -112 8 -131 80 -36 135 63 240 152 161z"/>
<path d="M8143 773 c-18 -12 -23 -25 -23 -59 0 -37 -3 -44 -20 -44 -15 0 -20 -7 -20 -25 0 -18 5 -25 19 -25 16 0 19 -12 24 -142 5 -131 7 -144 27 -160 40 -32 100 -21 100 19 0 20 -4 24 -19 20 -10 -2 -26 0 -35 5 -13 8 -16 28 -16 133 l0 125 30 0 c25 0 30 4 30 25 0 21 -5 25 -30 25 l-30 0 0 60 c0 33 -3 60 -7 59 -5 0 -18 -7 -30 -16z"/>
<path d="M4265 666 c-42 -18 -83 -69 -91 -112 -11 -59 0 -152 22 -181 39 -52 71 -68 134 -68 68 0 103 20 133 79 22 42 22 42 -16 51 -21 6 -27 4 -27 -10 0 -26 -55 -75 -85 -75 -40 0 -81 26 -95 59 -7 19 -11 57 -8 97 4 60 7 70 36 95 48 43 117 34 141 -18 9 -19 16 -23 34 -17 32 10 33 12 17 41 -35 61 -129 90 -195 59z"/>
<path d="M4620 652 l-30 -30 0 24 c0 19 -5 24 -25 24 l-25 0 0 -180 0 -180 25 0 25 0 0 103 c0 56 5 119 11 140 12 45 46 71 83 61 22 -5 27 -2 36 21 6 15 12 26 15 24 2 -2 33 -82 70 -177 68 -176 70 -190 39 -240 -11 -16 -24 -22 -49 -22 -30 0 -35 -3 -35 -24 0 -47 59 -49 104 -3 30 30 56 92 194 465 3 8 -6 12 -25 12 -29 0 -31 -4 -76 -128 -26 -70 -47 -133 -47 -140 0 -37 -20 3 -64 128 l-50 141 -40 -2 c-23 0 -55 2 -73 6 -28 6 -37 3 -63 -23z"/>
<path d="M5516 670 c-123 -39 -145 -263 -33 -344 40 -29 134 -29 174 0 28 21 72 89 63 98 -3 2 -17 7 -33 11 -22 6 -27 4 -27 -11 -1 -38 -47 -74 -94 -74 -14 0 -40 13 -58 29 -32 29 -33 31 -33 111 0 80 1 82 33 111 48 43 117 35 141 -18 9 -19 16 -23 34 -17 32 10 33 12 17 41 -33 58 -114 85 -184 63z"/>
<path d="M6085 670 c-12 -4 -27 -15 -34 -24 -18 -22 -31 -20 -31 4 0 15 -7 20 -25 20 l-25 0 0 -250 0 -250 30 0 30 0 0 85 c0 47 3 85 7 85 3 0 15 -8 26 -17 28 -26 107 -24 143 3 55 40 69 70 72 152 3 66 0 84 -20 121 -36 67 -110 97 -173 71z m98 -60 c62 -49 53 -211 -14 -245 -15 -8 -35 -15 -44 -15 -31 0 -72 30 -86 61 -27 68 -6 182 38 208 29 17 78 12 106 -9z"/>
<path d="M6441 649 l-31 -33 0 27 c0 22 -4 27 -25 27 l-25 0 0 -180 0 -180 30 0 30 0 0 114 c0 62 5 128 11 145 13 36 47 54 84 45 20 -5 25 -1 31 20 8 33 6 35 -39 43 -31 5 -40 1 -66 -28z"/>
<path d="M6680 669 c-33 -13 -68 -47 -88 -84 -21 -41 -21 -150 1 -191 48 -92 154 -119 245 -64 69 42 94 172 50 260 -37 72 -133 109 -208 79z m111 -55 c36 -18 59 -67 59 -124 0 -57 -23 -106 -59 -124 -84 -44 -156 14 -156 124 0 111 72 168 156 124z"/>
<path d="M7833 661 c-58 -27 -85 -81 -85 -172 -1 -89 22 -136 82 -166 83 -43 171 -18 208 58 20 41 21 44 4 51 -31 12 -38 9 -53 -24 -20 -46 -57 -65 -105 -53 -53 14 -76 50 -78 122 -2 97 38 153 107 153 29 0 77 -35 77 -57 0 -12 6 -14 27 -8 38 9 38 10 16 47 -37 64 -120 85 -200 49z"/>
<path d="M8358 664 c-24 -10 -42 -27 -53 -49 -32 -69 4 -115 116 -146 86 -24 99 -33 99 -64 0 -31 -22 -47 -75 -52 -39 -5 -48 -2 -73 23 -16 16 -31 35 -33 41 -3 9 -13 10 -31 5 l-28 -7 18 -34 c23 -47 61 -72 115 -78 89 -10 167 42 167 112 0 52 -26 74 -130 108 -78 26 -96 36 -98 54 -9 61 134 71 154 11 4 -15 12 -18 27 -14 12 3 25 6 29 6 4 0 2 14 -4 31 -20 58 -122 85 -200 53z"/>
<path d="M5270 490 l0 -180 30 0 30 0 0 180 0 180 -30 0 -30 0 0 -180z"/>
<path d="M7380 520 l0 -150 29 -32 c26 -30 35 -33 84 -33 42 0 63 6 86 23 30 22 31 22 31 2 0 -15 7 -20 25 -20 l25 0 0 180 0 180 -25 0 -25 0 0 -114 c0 -62 -5 -127 -11 -145 -20 -56 -95 -78 -140 -42 -23 18 -24 26 -27 160 l-4 141 -24 0 -24 0 0 -150z"/>
</g>
</svg>