<svg xmlns="http://www.w3.org/2000/svg" version="1.0">

<g transform="translate(0.000000,613.000000) scale(0.100000,-0.100000)" fill="#000000" stroke="none">
<path d="M2550 5878 c-217 -22 -463 -104 -655 -218 -370 -218 -643 -574 -755 -984 -57 -205 -53 -71 -57 -2264 l-3 -2022 2017 3 c1874 2 2024 4 2105 20 370 75 640 212 880 450 250 245 409 549 476 902 15 82 17 262 19 2108 l3 2017 -1972 -1 c-1085 -1 -2011 -6 -2058 -11z m460 -1852 c204 -73 219 -73 251 -1 16 36 25 45 44 45 l25 0 0 -315 0 -315 -25 0 c-19 0 -26 6 -30 28 -19 92 -49 194 -70 237 -118 243 -473 338 -657 176 -61 -54 -92 -120 -92 -197 0 -137 94 -220 504 -449 296 -165 379 -233 441 -363 63 -131 61 -271 -6 -409 -91 -185 -284 -293 -524 -293 -103 0 -161 11 -339 65 -63 19 -129 35 -147 35 -38 0 -62 -23 -71 -68 -5 -25 -12 -32 -30 -32 l-24 0 0 310 0 310 23 0 c20 0 25 -10 44 -92 31 -129 81 -226 146 -283 192 -170 503 -188 652 -37 61 62 80 106 80 192 -1 138 -66 220 -273 342 -70 41 -193 114 -273 161 -162 95 -254 164 -313 235 -153 184 -138 436 35 610 107 109 233 154 414 148 97 -3 123 -8 215 -40z m1825 14 c258 -82 477 -289 575 -542 85 -219 85 -527 -1 -748 -133 -346 -463 -579 -820 -580 -283 0 -519 112 -691 328 -152 192 -224 457 -198 734 21 225 97 399 241 553 124 132 292 230 457 266 122 26 337 21 437 -11z"/>
<path d="M4430 3956 c-162 -46 -288 -176 -361 -376 -90 -247 -90 -641 0 -903 49 -142 143 -274 238 -335 143 -91 353 -101 508 -24 252 125 371 413 352 852 -18 390 -133 645 -339 751 -89 46 -294 64 -398 35z"/>
</g>
</svg>